<svg width="640" height="427" version="1.1" xmlns="http://www.w3.org/2000/svg"><path fill="rgb(0,0,0)" stroke="rgb(0,0,0)" stroke-width="1" opacity="0" d="M 0 0 L 640 0 L 640 427 L 0 427 L 0 0 Z M 143 158 L 135 161 L 128 169 L 127 174 L 127 228 L 129 234 Q 133 240 143 242 L 196 242 L 206 237 L 210 230 L 210 172 L 208 167 Q 204 160 195 158 L 143 158 Z M 309 164 L 307 166 L 307 184 L 301 181 Q 290 179 285 183 Q 277 188 275 199 Q 274 210 278 216 L 289 224 Q 302 226 307 220 L 309 224 Q 315 226 317 223 L 318 223 L 318 165 Q 315 163 309 164 Z M 497 164 L 495 166 L 495 223 Q 497 226 504 224 L 506 222 L 506 167 Q 504 162 497 164 Z M 480 165 Q 475 167 477 175 L 481 177 Q 488 178 489 174 Q 490 168 488 166 Q 486 164 480 165 Z M 373 180 L 364 183 L 360 187 L 357 183 L 353 181 Q 340 179 336 185 L 335 183 Q 333 179 327 181 L 325 183 L 325 223 Q 327 226 334 224 L 335 223 L 335 201 L 337 193 L 341 191 L 349 192 L 351 196 L 351 222 Q 353 226 361 224 L 362 223 L 362 198 L 364 194 Q 366 190 374 191 L 377 195 L 378 199 L 378 223 L 380 224 Q 387 226 389 222 L 389 195 L 387 188 L 382 182 L 373 180 Z M 246 181 L 240 184 Q 232 188 231 199 L 231 208 L 234 216 L 243 223 L 252 225 L 262 224 L 266 222 L 270 217 L 267 212 L 258 215 L 251 215 L 244 212 L 242 206 L 271 206 L 272 205 L 272 197 L 268 188 Q 262 179 246 181 Z M 408 181 L 401 185 Q 395 189 393 198 Q 391 211 397 217 Q 401 222 408 224 L 422 224 L 428 221 Q 434 217 436 208 L 436 198 L 432 189 Q 428 183 422 181 L 408 181 Z M 437 181 L 435 183 L 449 223 Q 452 225 460 224 L 462 222 L 465 211 L 475 186 Q 476 182 474 181 Q 467 180 464 182 L 456 210 L 452 203 L 447 184 Q 445 179 437 181 Z M 480 181 L 477 184 L 477 222 Q 479 226 487 224 L 488 223 L 488 183 Q 486 179 480 181 Z M 254 241 L 251 242 Q 249 246 253 245 Q 254 247 255 245 L 254 241 Z M 263 241 L 263 263 L 267 262 L 270 264 L 276 262 L 278 259 L 277 251 L 272 247 L 268 248 L 266 249 L 266 241 L 263 241 Z M 382 241 L 381 244 L 382 246 L 384 245 L 386 242 L 382 241 Z M 417 241 L 414 244 Q 413 246 416 245 Q 417 247 418 245 L 417 241 Z M 426 241 L 426 263 L 429 263 L 430 262 L 430 243 L 426 241 Z M 233 243 L 233 263 L 237 263 L 237 255 L 244 255 L 244 252 L 237 252 L 237 246 L 245 246 L 245 243 L 233 243 Z M 345 243 L 345 256 L 344 257 L 344 263 L 348 263 L 349 250 L 354 262 Q 353 264 357 263 L 363 250 L 364 258 Q 362 265 368 263 L 367 261 L 367 248 L 366 247 L 366 243 L 361 243 L 356 256 L 351 245 Q 350 242 345 243 Z M 469 243 L 469 246 L 475 246 L 475 247 L 475 263 L 479 263 L 479 246 L 484 246 L 484 243 L 469 243 Z M 490 243 L 496 262 L 496 263 L 501 263 L 507 246 Q 508 241 503 243 L 499 257 L 494 245 Q 493 242 490 243 Z M 292 247 L 289 249 L 287 248 L 284 249 L 284 263 L 288 263 L 288 254 Q 289 250 293 251 L 292 247 Z M 305 247 L 302 248 L 300 252 L 303 251 Q 310 249 308 254 Q 302 253 299 255 L 298 258 L 299 262 L 303 264 L 308 262 L 312 263 L 312 253 L 311 251 Q 309 247 305 247 Z M 381 247 L 378 248 L 373 255 L 374 260 L 381 264 L 386 263 L 390 257 L 389 252 Q 387 247 381 247 Z M 251 248 L 251 263 L 255 263 L 255 249 L 251 248 Z M 394 248 L 398 262 Q 399 264 404 263 L 409 249 L 406 248 L 402 258 L 398 250 L 394 248 Z M 415 248 L 415 263 L 418 263 L 418 249 L 415 248 Z M 445 248 L 449 261 L 449 265 L 446 266 L 448 270 L 451 269 L 459 250 L 459 248 L 455 248 L 452 257 L 449 251 Q 450 246 445 248 Z M 323 259 L 320 265 Q 318 269 322 268 L 325 262 Q 326 258 323 259 Z "></path><path fill="rgb(0,0,0)" stroke="rgb(0,0,0)" stroke-width="1" opacity="0" d="M 147 173 L 156.5 173 L 166.5 176 Q 179.8 181.8 188 192.5 L 197 210.5 L 198 225 L 189 225 L 189 219.5 Q 185.9 201.6 174.5 192 L 156.5 183 L 147 183 L 147 173 Z "></path><path fill="rgb(0,0,0)" stroke="rgb(0,0,0)" stroke-width="1" opacity="0" d="M 147 190 Q 165.9 190.4 174 202.5 L 180 213.5 L 182 224.5 L 172 225 Q 171.9 209 160.5 203 L 156.5 201 L 147 200 L 147 190 Z "></path><path fill="rgb(0,0,0)" stroke="rgb(0,0,0)" stroke-width="1" opacity="0" d="M 248.5 190 Q 257.5 188.5 260 193.5 L 261 198 L 243.5 198 L 243 195.5 L 246.5 191 L 248.5 190 Z "></path><path fill="rgb(0,0,0)" stroke="rgb(0,0,0)" stroke-width="1" opacity="0" d="M 411.5 190 Q 420.4 189.1 423 194.5 Q 426.3 198.2 425 206.5 L 422 213 Q 419.1 215.9 411.5 215 L 407 213 L 404 206.5 L 404 198.5 L 409.5 191 L 411.5 190 Z "></path><path fill="rgb(0,0,0)" stroke="rgb(0,0,0)" stroke-width="1" opacity="0" d="M 292.5 191 Q 303.8 188.8 306 195.5 Q 308.7 199.3 307 207.5 L 302.5 213 L 293.5 214 L 289 211.5 Q 285.3 207.2 287 197.5 L 289 193 L 292.5 191 Z "></path><path fill="rgb(0,0,0)" stroke="rgb(0,0,0)" stroke-width="1" opacity="0" d="M 152.5 211 Q 158.7 210.3 160 214.5 L 161 221.5 L 160 224 L 156.5 226 L 150.5 226 Q 146.1 223.9 146 217.5 L 148 213 L 152.5 211 Z "></path><path fill="rgb(0,0,0)" stroke="rgb(0,0,0)" stroke-width="1" opacity="0" d="M 267 251 Q 272.5 249.8 274 253.5 Q 275 259 271.5 260 Q 266.8 260.8 266 257.5 L 267 251 Z "></path><path fill="rgb(0,0,0)" stroke="rgb(0,0,0)" stroke-width="1" opacity="0" d="M 379.5 251 Q 385 250 386 253.5 Q 387 259 383.5 260 Q 378 261 377 257.5 Q 376 252 379.5 251 Z "></path><path fill="rgb(0,0,0)" stroke="rgb(0,0,0)" stroke-width="1" opacity="0" d="M 305.5 256 L 308 257.5 L 306.5 260 L 303.5 261 L 302 258.5 L 305.5 256 Z "></path><path fill="rgb(245,245,245)" stroke="rgb(245,245,245)" stroke-width="1" opacity="0.9647058823529412" d="M 142.5 158 L 194.5 158 Q 203.8 159.8 208 166.5 L 210 171.5 L 210 229.5 L 205.5 237 L 195.5 242 L 142.5 242 Q 133.3 240.3 129 233.5 L 127 227.5 L 127 173.5 L 128 168.5 L 134.5 161 L 142.5 158 Z M 147 173 L 147 183 L 157 183 L 175 192 Q 186 202 189 220 L 189 225 L 198 225 L 197 211 L 188 193 Q 180 182 167 176 L 157 173 L 147 173 Z M 147 190 L 147 200 L 157 201 L 161 203 Q 172 209 172 225 L 182 225 L 180 214 L 174 203 Q 166 190 147 190 Z M 153 211 L 148 213 L 146 218 Q 146 224 151 226 L 157 226 L 160 224 L 161 222 L 160 215 Q 159 210 153 211 Z "></path><path fill="rgb(245,245,245)" stroke="rgb(245,245,245)" stroke-width="1" opacity="0.9647058823529412" d="M 308.5 164 Q 315.3 163.1 318 165 L 318 222.5 L 316.5 223 Q 314.8 225.8 308.5 224 L 306.5 220 Q 301.9 226.4 288.5 224 L 278 215.5 Q 273.8 209.7 275 198.5 Q 277.1 188.1 284.5 183 Q 289.9 179.4 300.5 181 L 307 184 L 307 165.5 L 308.5 164 Z M 293 191 L 289 193 L 287 198 Q 285 207 289 212 L 294 214 L 303 213 L 307 208 Q 309 199 306 196 Q 304 189 293 191 Z "></path><path fill="rgb(245,245,245)" stroke="rgb(245,245,245)" stroke-width="1" opacity="0.9647058823529412" d="M 496.5 164 Q 504.3 162.3 506 166.5 L 506 221.5 L 503.5 224 Q 496.8 225.7 495 222.5 L 495 165.5 L 496.5 164 Z "></path><path fill="rgb(245,245,245)" stroke="rgb(245,245,245)" stroke-width="1" opacity="0.9647058823529412" d="M 479.5 165 Q 485.6 164.3 488 166 Q 489.6 168.1 489 173.5 Q 487.8 178.2 480.5 177 L 477 174.5 Q 475.3 166.8 479.5 165 Z "></path><path fill="rgb(245,245,245)" stroke="rgb(245,245,245)" stroke-width="1" opacity="0.9647058823529412" d="M 372.5 180 L 381.5 182 L 387 187.5 L 389 194.5 L 389 221.5 Q 387.3 225.8 379.5 224 L 378 222.5 L 378 198.5 L 377 194.5 L 373.5 191 Q 366.3 189.8 364 193.5 L 362 197.5 L 362 222.5 L 360.5 224 Q 352.8 225.7 351 221.5 L 351 195.5 L 348.5 192 L 340.5 191 L 337 193 L 335 200.5 L 335 222.5 L 333.5 224 Q 326.8 225.7 325 222.5 L 325 182.5 L 326.5 181 Q 333.3 179.3 335 182.5 L 335.5 185 Q 339.8 178.8 352.5 181 L 357 183 L 359.5 187 L 363.5 183 L 372.5 180 Z "></path><path fill="rgb(245,245,245)" stroke="rgb(245,245,245)" stroke-width="1" opacity="0.9647058823529412" d="M 245.5 181 Q 262.3 178.7 268 187.5 L 272 196.5 L 272 204.5 L 270.5 206 L 242 206 L 244 212 L 250.5 215 L 257.5 215 L 266.5 212 L 270 216.5 L 265.5 222 L 261.5 224 L 251.5 225 L 242.5 223 L 234 215.5 L 231 207.5 L 231 198.5 Q 232.5 188.5 239.5 184 L 245.5 181 Z M 249 190 L 247 191 L 243 196 L 244 198 L 261 198 L 260 194 Q 258 188 249 190 Z "></path><path fill="rgb(245,245,245)" stroke="rgb(245,245,245)" stroke-width="1" opacity="0.9647058823529412" d="M 407.5 181 L 421.5 181 Q 428.3 183.3 432 188.5 L 436 197.5 L 436 207.5 Q 434.1 216.6 427.5 221 L 421.5 224 L 407.5 224 Q 400.8 221.8 397 216.5 Q 391.5 210.5 393 197.5 Q 394.8 189.3 400.5 185 L 407.5 181 Z M 412 190 L 410 191 L 404 199 L 404 207 L 407 213 L 412 215 Q 419 216 422 213 L 425 207 Q 426 198 423 195 Q 420 189 412 190 Z "></path><path fill="rgb(245,245,245)" stroke="rgb(245,245,245)" stroke-width="1" opacity="0.9647058823529412" d="M 436.5 181 Q 445 179 447 183.5 L 452 202.5 L 455.5 210 L 464 182 Q 466.7 180.1 473.5 181 Q 475.8 181.8 475 185.5 L 465 210.5 L 462 221.5 L 459.5 224 Q 452 225 449 223 L 435 182.5 L 436.5 181 Z "></path><path fill="rgb(245,245,245)" stroke="rgb(245,245,245)" stroke-width="1" opacity="0.9647058823529412" d="M 479.5 181 Q 486.3 179.3 488 182.5 L 488 222.5 L 486.5 224 Q 478.8 225.7 477 221.5 L 477 183.5 L 479.5 181 Z "></path><path fill="rgb(245,245,245)" stroke="rgb(245,245,245)" stroke-width="1" opacity="0.9647058823529412" d="M 253.5 241 L 255 244.5 Q 253.8 247.3 252.5 245 Q 249.5 245.7 251 242 L 253.5 241 Z "></path><path fill="rgb(245,245,245)" stroke="rgb(245,245,245)" stroke-width="1" opacity="0.9647058823529412" d="M 263 241 L 266 241 L 266 248.5 L 267.5 248 L 271.5 247 L 277 250.5 L 278 258.5 L 276 262 L 269.5 264 L 266.5 262 L 263 263 L 263 241 Z M 267 251 L 266 258 Q 267 261 272 260 Q 275 259 274 254 Q 273 250 267 251 Z "></path><path fill="rgb(245,245,245)" stroke="rgb(245,245,245)" stroke-width="1" opacity="0.9647058823529412" d="M 382 241 L 386 241.5 L 383.5 245 L 381.5 246 L 381 243.5 L 382 241 Z "></path><path fill="rgb(245,245,245)" stroke="rgb(245,245,245)" stroke-width="1" opacity="0.9647058823529412" d="M 416.5 241 L 418 244.5 Q 416.8 247.3 415.5 245 Q 413.3 245.8 414 243.5 L 416.5 241 Z "></path><path fill="rgb(245,245,245)" stroke="rgb(245,245,245)" stroke-width="1" opacity="0.9647058823529412" d="M 426 241 L 430 242.5 L 430 261.5 L 428.5 263 L 426 262.5 L 426 241 Z "></path><path fill="rgb(245,245,245)" stroke="rgb(245,245,245)" stroke-width="1" opacity="0.9647058823529412" d="M 233 243 L 244.5 243 L 245 246 L 237 246 L 237 252 L 244 252 L 244 255 L 237 255 L 237 263 L 233 263 L 233 243 Z "></path><path fill="rgb(245,245,245)" stroke="rgb(245,245,245)" stroke-width="1" opacity="0.9647058823529412" d="M 345 243 Q 349.6 241.8 351 244.5 L 355.5 256 L 361 243 L 366 243 L 366 246.5 L 367 247.5 L 367 260.5 L 368 263 Q 361.6 265.3 364 257.5 L 362.5 250 L 357 263 Q 353.3 264.5 354 261.5 L 348.5 250 L 348 263 L 344 263 L 344 256.5 L 345 255.5 L 345 243 Z "></path><path fill="rgb(245,245,245)" stroke="rgb(245,245,245)" stroke-width="1" opacity="0.9647058823529412" d="M 469 243 L 483.5 243 L 484 246 L 479 246 L 479 262.5 L 475 263 L 475 246.5 L 474.5 246 L 469 246 L 469 243 Z "></path><path fill="rgb(245,245,245)" stroke="rgb(245,245,245)" stroke-width="1" opacity="0.9647058823529412" d="M 489.5 243 Q 493.3 242.3 494 244.5 L 498.5 257 L 503 243 Q 508.2 240.9 507 245.5 L 501 263 L 496 263 L 496 261.5 L 489.5 243 Z "></path><path fill="rgb(245,245,245)" stroke="rgb(245,245,245)" stroke-width="1" opacity="0.9647058823529412" d="M 291.5 247 L 293 251 Q 289.2 250.3 288 253.5 L 288 263 L 284 263 L 284 248.5 L 286.5 248 L 288.5 249 L 291.5 247 Z "></path><path fill="rgb(245,245,245)" stroke="rgb(245,245,245)" stroke-width="1" opacity="0.9647058823529412" d="M 304.5 247 Q 309.3 247.3 311 250.5 L 312 252.5 L 312 263 L 307.5 262 L 302.5 264 L 299 261.5 L 298 257.5 L 299 255 Q 301.8 253.1 308 254 Q 309.8 248.7 302.5 251 L 300 252 L 301.5 248 L 304.5 247 Z M 306 256 L 302 259 L 304 261 L 307 260 L 308 258 L 306 256 Z "></path><path fill="rgb(245,245,245)" stroke="rgb(245,245,245)" stroke-width="1" opacity="0.9647058823529412" d="M 380.5 247 Q 386.9 247.1 389 251.5 L 390 256.5 L 385.5 263 L 380.5 264 L 374 259.5 L 373 254.5 L 377.5 248 L 380.5 247 Z M 380 251 Q 376 252 377 258 Q 378 261 384 260 Q 387 259 386 254 Q 385 250 380 251 Z "></path><path fill="rgb(245,245,245)" stroke="rgb(245,245,245)" stroke-width="1" opacity="0.9647058823529412" d="M 251 248 L 255 248.5 L 255 263 L 251 262.5 L 251 248 Z "></path><path fill="rgb(245,245,245)" stroke="rgb(245,245,245)" stroke-width="1" opacity="0.9647058823529412" d="M 394 248 L 398 249.5 L 401.5 258 L 405.5 248 L 409 248.5 L 404 263 Q 399.4 264.3 398 261.5 L 394 248 Z "></path><path fill="rgb(245,245,245)" stroke="rgb(245,245,245)" stroke-width="1" opacity="0.9647058823529412" d="M 415 248 L 418 248.5 L 418 263 L 415 262.5 L 415 248 Z "></path><path fill="rgb(245,245,245)" stroke="rgb(245,245,245)" stroke-width="1" opacity="0.9647058823529412" d="M 445 248 Q 450.2 245.9 449 250.5 L 451.5 257 L 455 248 L 459 248 L 459 249.5 L 450.5 269 L 447.5 270 L 446 266 L 449 264.5 L 449 260.5 L 445 248 Z "></path><path fill="rgb(245,245,245)" stroke="rgb(245,245,245)" stroke-width="1" opacity="0.9647058823529412" d="M 322.5 259 Q 326.3 257.8 325 261.5 L 321.5 268 Q 318.5 268.9 320 264.5 L 322.5 259 Z "></path></svg>